<svg xmlns="http://www.w3.org/2000/svg" viewBox="0 0 240 364" width="240" height="364">
<defs><linearGradient id="g103" x1="0" y1="0" x2="0" y2="1">
<stop offset="0" stop-color="#F6C98A"/><stop offset="1" stop-color="#F3E7D0"/></linearGradient></defs>
<rect width="240" height="364" fill="url(#g103)"/><rect x="0" y="284" width="240" height="80" fill="#C89A63"/><path d="M0 284 H240" stroke="#2E2A45" stroke-width="4"/>
<rect x="20" y="286" width="200" height="18" rx="6" fill="#A5713F" stroke="#2E2A45" stroke-width="4"/>
<g transform="translate(120 300) scale(1.6)">
<path d="M-10 -34 V-6" fill="none" stroke="#3B4A78" stroke-width="14" stroke-linecap="round"/><path d="M10 -34 V-6" fill="none" stroke="#3B4A78" stroke-width="14" stroke-linecap="round"/><ellipse cx="-10" cy="-4" rx="9" ry="5.5" fill="#2E2A45"/><ellipse cx="10" cy="-4" rx="9" ry="5.5" fill="#2E2A45"/><path d="M-20 -68 L-30 -48" fill="none" stroke="#DC5B5B" stroke-width="13" stroke-linecap="round"/>
<path d="M-20 -68 L-30 -48" fill="none" stroke="#2E2A45" stroke-width="3.4" stroke-linecap="round" opacity="0.28"/><path d="M20 -68 L10 -84" fill="none" stroke="#DC5B5B" stroke-width="13" stroke-linecap="round"/>
<path d="M20 -68 L10 -84" fill="none" stroke="#2E2A45" stroke-width="3.4" stroke-linecap="round" opacity="0.28"/><circle cx="-30" cy="-48" r="7.5" fill="#F2C6A0" stroke="#2E2A45" stroke-width="3"/><circle cx="10" cy="-84" r="7.5" fill="#F2C6A0" stroke="#2E2A45" stroke-width="3"/>
<path d="M-21 -34 V-64 q0 -16 21 -16 q21 0 21 16 v30 Z" fill="#DC5B5B" stroke="#2E2A45" stroke-width="3.6"/><rect x="-6" y="-84" width="12" height="10" fill="#F2C6A0"/><circle cx="0" cy="-100" r="24" fill="#F2C6A0" stroke="#2E2A45" stroke-width="3.6"/>
<path d="M-26 -78 q-8 -50 26 -50 q34 0 26 50 q-8 -22 -26 -22 q-18 0 -26 22 Z" fill="#E0C083" stroke="#2E2A45" stroke-width="3.4"/>
<path d="M-26 -96 q-10 30 -4 44 q10 4 14 -8 M26 -96 q10 30 4 44 q-10 4 -14 -8" fill="#E0C083" stroke="#2E2A45" stroke-width="3.4"/>
<path d="M-15 -104 q6 7 12 0" fill="none" stroke="#2E2A45" stroke-width="3" stroke-linecap="round"/><path d="M3 -104 q6 7 12 0" fill="none" stroke="#2E2A45" stroke-width="3" stroke-linecap="round"/><path d="M-5 -90 q5 4 10 0" fill="none" stroke="#2E2A45" stroke-width="3.2" stroke-linecap="round"/>
</g>
<g fill="#8A90A8" opacity="0.6"><circle cx="188" cy="200" r="4"/><circle cx="200" cy="184" r="3"/><circle cx="210" cy="170" r="2.5"/></g>
<defs><radialGradient id="g285" cx="0.5" cy="0.46" r="0.78">
<stop offset="0.55" stop-color="#2E2A45" stop-opacity="0"/>
<stop offset="1" stop-color="#2E2A45" stop-opacity="0.24"/></radialGradient></defs>
<rect width="240" height="364" fill="url(#g285)"/>
</svg>
