<svg xmlns="http://www.w3.org/2000/svg" viewBox="0 0 240 364" width="240" height="364">
<defs><linearGradient id="g64" x1="0" y1="0" x2="0" y2="1">
<stop offset="0" stop-color="#F0A57E"/><stop offset="1" stop-color="#F7D3A8"/></linearGradient></defs>
<rect width="240" height="364" fill="url(#g64)"/><g transform="translate(44 66) scale(0.7)">
<path d="M-34 12 q-18 0 -18 -14 q0 -13 15 -14 q3 -19 24 -19 q18 0 22 16 q17 -2 20 12 q3 19 -17 19 Z" fill="#FFFCF5" stroke="#2E2A45" stroke-width="3.5"/></g>
<path d="M-10 260 L52 176 L110 254 L164 168 L250 268 V364 H-10 Z" fill="#5F9E86" stroke="#2E2A45" stroke-width="4"/>
<path d="M0 336 Q120 284 240 336 V364 H0 Z" fill="#5C9A5C"/>
<path d="M0 336 Q120 284 240 336" fill="none" stroke="#2E2A45" stroke-width="4"/>
<g transform="translate(120 214) scale(1) translate(-120 -122)" fill="none"
 stroke="#2E2A45" stroke-width="5" stroke-linecap="round" stroke-linejoin="round">
<path d="M42 96 h24 v-20 h20 v20 h24 v102 H42 Z" fill="#BFC3D4"/>
<path d="M130 96 h24 v-20 h20 v20 h24 v102 h-68 Z" fill="#BFC3D4"/>
<rect x="96" y="120" width="48" height="78" fill="#EBD9B4"/>
<path d="M96 142 q24 -30 48 0" fill="#3B4A78"/>
<rect x="106" y="150" width="28" height="48" rx="14" fill="#A5713F"/>
<path d="M120 76 v-26 l26 12 Z" fill="#F2765C"/></g>
<g fill="#F5C765"><rect x="98" y="238" width="12" height="16" rx="4"/><rect x="132" y="238" width="12" height="16" rx="4"/></g>
<defs><radialGradient id="g199" cx="0.5" cy="0.46" r="0.78">
<stop offset="0.55" stop-color="#2E2A45" stop-opacity="0"/>
<stop offset="1" stop-color="#2E2A45" stop-opacity="0.24"/></radialGradient></defs>
<rect width="240" height="364" fill="url(#g199)"/>
</svg>
