<svg xmlns="http://www.w3.org/2000/svg" viewBox="0 0 240 364" width="240" height="364">
<defs><linearGradient id="g92" x1="0" y1="0" x2="0" y2="1">
<stop offset="0" stop-color="#F6C98A"/><stop offset="1" stop-color="#F3E7D0"/></linearGradient></defs>
<rect width="240" height="364" fill="url(#g92)"/><rect x="0" y="284" width="240" height="80" fill="#C89A63"/><path d="M0 284 H240" stroke="#2E2A45" stroke-width="4"/>
<rect x="18" y="270" width="204" height="18" rx="6" fill="#A5713F" stroke="#2E2A45" stroke-width="4"/>
<g transform="translate(120 244) scale(0.42) translate(-120 -122)" fill="none"
 stroke="#2E2A45" stroke-width="11.904761904761905" stroke-linecap="round" stroke-linejoin="round">
<path d="M120 30 L214 194 H26 Z" fill="#EBD9B4"/>
<path d="M120 62 L188 182 H52 Z" fill="#F2765C"/>
<circle cx="120" cy="122" r="12" fill="#DC5B5B"/>
<circle cx="88" cy="160" r="11" fill="#DC5B5B"/>
<circle cx="152" cy="158" r="11" fill="#DC5B5B"/>
<circle cx="120" cy="176" r="9" fill="#DC5B5B"/></g>
<g transform="translate(54 270) scale(1.2)">
<path d="M-10 -34 V-6" fill="none" stroke="#3B4A78" stroke-width="14" stroke-linecap="round"/><path d="M10 -34 V-6" fill="none" stroke="#3B4A78" stroke-width="14" stroke-linecap="round"/><ellipse cx="-10" cy="-4" rx="9" ry="5.5" fill="#2E2A45"/><ellipse cx="10" cy="-4" rx="9" ry="5.5" fill="#2E2A45"/><path d="M-20 -68 L-24 -46" fill="none" stroke="#4FA3A5" stroke-width="13" stroke-linecap="round"/>
<path d="M-20 -68 L-24 -46" fill="none" stroke="#2E2A45" stroke-width="3.4" stroke-linecap="round" opacity="0.28"/><path d="M20 -68 L24 -46" fill="none" stroke="#4FA3A5" stroke-width="13" stroke-linecap="round"/>
<path d="M20 -68 L24 -46" fill="none" stroke="#2E2A45" stroke-width="3.4" stroke-linecap="round" opacity="0.28"/><circle cx="-24" cy="-46" r="7.5" fill="#F2C6A0" stroke="#2E2A45" stroke-width="3"/><circle cx="24" cy="-46" r="7.5" fill="#F2C6A0" stroke="#2E2A45" stroke-width="3"/>
<path d="M-21 -34 V-64 q0 -16 21 -16 q21 0 21 16 v30 Z" fill="#4FA3A5" stroke="#2E2A45" stroke-width="3.6"/><rect x="-6" y="-84" width="12" height="10" fill="#F2C6A0"/><circle cx="0" cy="-100" r="24" fill="#F2C6A0" stroke="#2E2A45" stroke-width="3.6"/>
<path d="M-25 -102 q0 -30 25 -30 q25 0 25 30 q-6 -20 -25 -20 q-19 0 -25 20 Z" fill="#6B4326" stroke="#2E2A45" stroke-width="3.4"/>
<circle cx="-9" cy="-104" r="3.4" fill="#2E2A45"/><circle cx="9" cy="-104" r="3.4" fill="#2E2A45"/><path d="M-10 -91 q10 10 20 0" fill="none" stroke="#2E2A45" stroke-width="3.2" stroke-linecap="round"/><ellipse cx="-17" cy="-94" rx="6" ry="4" fill="#EFA0BE" opacity="0.75"/>
<ellipse cx="17" cy="-94" rx="6" ry="4" fill="#EFA0BE" opacity="0.75"/>
</g>
<g transform="translate(120 266) scale(1.3)">
<path d="M-10 -34 V-6" fill="none" stroke="#3B4A78" stroke-width="14" stroke-linecap="round"/><path d="M10 -34 V-6" fill="none" stroke="#3B4A78" stroke-width="14" stroke-linecap="round"/><ellipse cx="-10" cy="-4" rx="9" ry="5.5" fill="#2E2A45"/><ellipse cx="10" cy="-4" rx="9" ry="5.5" fill="#2E2A45"/><path d="M-20 -68 L-24 -46" fill="none" stroke="#F2765C" stroke-width="13" stroke-linecap="round"/>
<path d="M-20 -68 L-24 -46" fill="none" stroke="#2E2A45" stroke-width="3.4" stroke-linecap="round" opacity="0.28"/><path d="M20 -68 L24 -46" fill="none" stroke="#F2765C" stroke-width="13" stroke-linecap="round"/>
<path d="M20 -68 L24 -46" fill="none" stroke="#2E2A45" stroke-width="3.4" stroke-linecap="round" opacity="0.28"/><circle cx="-24" cy="-46" r="7.5" fill="#C4835A" stroke="#2E2A45" stroke-width="3"/><circle cx="24" cy="-46" r="7.5" fill="#C4835A" stroke="#2E2A45" stroke-width="3"/>
<path d="M-21 -34 V-64 q0 -16 21 -16 q21 0 21 16 v30 Z" fill="#F2765C" stroke="#2E2A45" stroke-width="3.6"/><rect x="-6" y="-84" width="12" height="10" fill="#C4835A"/><circle cx="0" cy="-100" r="24" fill="#C4835A" stroke="#2E2A45" stroke-width="3.6"/>
<path d="M-25 -102 q0 -30 25 -30 q25 0 25 30 q-6 -20 -25 -20 q-19 0 -25 20 Z" fill="#3A2A22" stroke="#2E2A45" stroke-width="3.4"/>
<circle cx="-9" cy="-104" r="6.5" fill="#FFFCF5" stroke="#2E2A45" stroke-width="2.4"/><circle cx="-9" cy="-104" r="3" fill="#2E2A45"/><circle cx="9" cy="-104" r="6.5" fill="#FFFCF5" stroke="#2E2A45" stroke-width="2.4"/><circle cx="9" cy="-104" r="3" fill="#2E2A45"/><path d="M-11 -93 q11 16 22 0 Z" fill="#2E2A45"/><ellipse cx="-17" cy="-94" rx="6" ry="4" fill="#EFA0BE" opacity="0.75"/>
<ellipse cx="17" cy="-94" rx="6" ry="4" fill="#EFA0BE" opacity="0.75"/>
</g>
<g transform="translate(190 270) scale(1.2)">
<path d="M-10 -34 V-6" fill="none" stroke="#3B4A78" stroke-width="14" stroke-linecap="round"/><path d="M10 -34 V-6" fill="none" stroke="#3B4A78" stroke-width="14" stroke-linecap="round"/><ellipse cx="-10" cy="-4" rx="9" ry="5.5" fill="#2E2A45"/><ellipse cx="10" cy="-4" rx="9" ry="5.5" fill="#2E2A45"/><path d="M-20 -68 L-24 -46" fill="none" stroke="#F5C765" stroke-width="13" stroke-linecap="round"/>
<path d="M-20 -68 L-24 -46" fill="none" stroke="#2E2A45" stroke-width="3.4" stroke-linecap="round" opacity="0.28"/><path d="M20 -68 L24 -46" fill="none" stroke="#F5C765" stroke-width="13" stroke-linecap="round"/>
<path d="M20 -68 L24 -46" fill="none" stroke="#2E2A45" stroke-width="3.4" stroke-linecap="round" opacity="0.28"/><circle cx="-24" cy="-46" r="7.5" fill="#E0A87C" stroke="#2E2A45" stroke-width="3"/><circle cx="24" cy="-46" r="7.5" fill="#E0A87C" stroke="#2E2A45" stroke-width="3"/>
<path d="M-21 -34 V-64 q0 -16 21 -16 q21 0 21 16 v30 Z" fill="#F5C765" stroke="#2E2A45" stroke-width="3.6"/><rect x="-6" y="-84" width="12" height="10" fill="#E0A87C"/><circle cx="0" cy="-100" r="24" fill="#E0A87C" stroke="#2E2A45" stroke-width="3.6"/>
<path d="M-26 -78 q-8 -50 26 -50 q34 0 26 50 q-8 -22 -26 -22 q-18 0 -26 22 Z" fill="#E0C083" stroke="#2E2A45" stroke-width="3.4"/>
<path d="M-26 -96 q-10 30 -4 44 q10 4 14 -8 M26 -96 q10 30 4 44 q-10 4 -14 -8" fill="#E0C083" stroke="#2E2A45" stroke-width="3.4"/>
<circle cx="-9" cy="-104" r="3.4" fill="#2E2A45"/><circle cx="9" cy="-104" r="3.4" fill="#2E2A45"/><path d="M-10 -91 q10 10 20 0" fill="none" stroke="#2E2A45" stroke-width="3.2" stroke-linecap="round"/><ellipse cx="-17" cy="-94" rx="6" ry="4" fill="#EFA0BE" opacity="0.75"/>
<ellipse cx="17" cy="-94" rx="6" ry="4" fill="#EFA0BE" opacity="0.75"/>
</g>
<defs><radialGradient id="g270" cx="0.5" cy="0.46" r="0.78">
<stop offset="0.55" stop-color="#2E2A45" stop-opacity="0"/>
<stop offset="1" stop-color="#2E2A45" stop-opacity="0.24"/></radialGradient></defs>
<rect width="240" height="364" fill="url(#g270)"/>
</svg>
