<svg xmlns="http://www.w3.org/2000/svg" viewBox="0 0 240 364" width="240" height="364">
<defs><linearGradient id="g92" x1="0" y1="0" x2="0" y2="1">
<stop offset="0" stop-color="#F6C98A"/><stop offset="1" stop-color="#F3E7D0"/></linearGradient></defs>
<rect width="240" height="364" fill="url(#g92)"/><rect x="0" y="284" width="240" height="80" fill="#C89A63"/><path d="M0 284 H240" stroke="#2E2A45" stroke-width="4"/>
<g fill="#FFFCF5" stroke="#2E2A45" stroke-width="3.4">
<rect x="40" y="266" width="52" height="38" rx="3" transform="rotate(-12 66 285)"/>
<rect x="96" y="286" width="56" height="38" rx="3" transform="rotate(6 124 305)"/>
<rect x="146" y="258" width="52" height="38" rx="3" transform="rotate(16 172 277)"/></g>
<g stroke="#8A90A8" stroke-width="2.6"><path d="M52 280 h30 M108 300 h34 M158 274 h30"/></g>
<g transform="translate(178 216) scale(0.36) translate(-120 -122)" fill="none"
 stroke="#2E2A45" stroke-width="13.88888888888889" stroke-linecap="round" stroke-linejoin="round">
<path d="M78 78 q0 -34 42 -34 q42 0 42 34" fill="none" stroke-width="10" stroke="#4FA3A5"/>
<path d="M56 96 q0 -26 64 -26 q64 0 64 26 v82 q0 22 -24 22 H80 q-24 0 -24 -22 Z" fill="#4FA3A5"/>
<path d="M84 152 h72 v48 H84 Z" fill="#EBD9B4"/>
<path d="M56 140 h128" fill="none" stroke-width="4"/>
<rect x="106" y="164" width="28" height="14" rx="6" fill="#A5713F"/></g>
<g fill="#8A90A8"><circle cx="72" cy="234" r="4"/><circle cx="132" cy="222" r="3"/></g>
<defs><radialGradient id="g249" cx="0.5" cy="0.46" r="0.78">
<stop offset="0.55" stop-color="#2E2A45" stop-opacity="0"/>
<stop offset="1" stop-color="#2E2A45" stop-opacity="0.24"/></radialGradient></defs>
<rect width="240" height="364" fill="url(#g249)"/>
</svg>
