<svg xmlns="http://www.w3.org/2000/svg" viewBox="0 0 240 364" width="240" height="364">
<defs><linearGradient id="g115" x1="0" y1="0" x2="0" y2="1">
<stop offset="0" stop-color="#F6C98A"/><stop offset="1" stop-color="#F3E7D0"/></linearGradient></defs>
<rect width="240" height="364" fill="url(#g115)"/><rect x="0" y="284" width="240" height="80" fill="#C89A63"/><path d="M0 284 H240" stroke="#2E2A45" stroke-width="4"/>
<g transform="translate(92 322) scale(1.5)">
<path d="M-10 -34 V-6" fill="none" stroke="#3B4A78" stroke-width="14" stroke-linecap="round"/><path d="M10 -34 V-6" fill="none" stroke="#3B4A78" stroke-width="14" stroke-linecap="round"/><ellipse cx="-10" cy="-4" rx="9" ry="5.5" fill="#2E2A45"/><ellipse cx="10" cy="-4" rx="9" ry="5.5" fill="#2E2A45"/><path d="M-20 -68 L-24 -46" fill="none" stroke="#8FBFA6" stroke-width="13" stroke-linecap="round"/>
<path d="M-20 -68 L-24 -46" fill="none" stroke="#2E2A45" stroke-width="3.4" stroke-linecap="round" opacity="0.28"/><path d="M20 -68 L24 -46" fill="none" stroke="#8FBFA6" stroke-width="13" stroke-linecap="round"/>
<path d="M20 -68 L24 -46" fill="none" stroke="#2E2A45" stroke-width="3.4" stroke-linecap="round" opacity="0.28"/><circle cx="-24" cy="-46" r="7.5" fill="#E0A87C" stroke="#2E2A45" stroke-width="3"/><circle cx="24" cy="-46" r="7.5" fill="#E0A87C" stroke="#2E2A45" stroke-width="3"/>
<path d="M-21 -34 V-64 q0 -16 21 -16 q21 0 21 16 v30 Z" fill="#8FBFA6" stroke="#2E2A45" stroke-width="3.6"/><rect x="-6" y="-84" width="12" height="10" fill="#E0A87C"/><circle cx="0" cy="-100" r="24" fill="#E0A87C" stroke="#2E2A45" stroke-width="3.6"/>
<path d="M-25 -102 q0 -30 25 -30 q25 0 25 30 q-6 -20 -25 -20 q-19 0 -25 20 Z" fill="#3A2A22" stroke="#2E2A45" stroke-width="3.4"/>
<circle cx="-9" cy="-104" r="3.4" fill="#2E2A45"/><circle cx="9" cy="-104" r="3.4" fill="#2E2A45"/><path d="M-10 -91 q10 10 20 0" fill="none" stroke="#2E2A45" stroke-width="3.2" stroke-linecap="round"/><ellipse cx="-17" cy="-94" rx="6" ry="4" fill="#EFA0BE" opacity="0.75"/>
<ellipse cx="17" cy="-94" rx="6" ry="4" fill="#EFA0BE" opacity="0.75"/>
</g>
<g transform="translate(152 240) scale(0.5) translate(-120 -122)" fill="none"
 stroke="#2E2A45" stroke-width="10" stroke-linecap="round" stroke-linejoin="round">
<path d="M112 24 h20 v112 h-20 Z" fill="#A5713F"/>
<path d="M84 136 h72 l16 34 H68 Z" fill="#EBD9B4"/>
<path d="M68 170 h104 l-8 46 H76 Z" fill="#F5C765"/>
<path d="M92 176 v36 M120 176 v40 M148 176 v36" fill="none" stroke-width="4"/></g>
<g fill="#8A90A8" opacity="0.5"><circle cx="184" cy="308" r="7"/><circle cx="204" cy="316" r="5"/></g>
<defs><radialGradient id="g309" cx="0.5" cy="0.46" r="0.78">
<stop offset="0.55" stop-color="#2E2A45" stop-opacity="0"/>
<stop offset="1" stop-color="#2E2A45" stop-opacity="0.24"/></radialGradient></defs>
<rect width="240" height="364" fill="url(#g309)"/>
</svg>
