<svg xmlns="http://www.w3.org/2000/svg" viewBox="0 0 240 240" width="240" height="240" fill="none">
  <circle cx="120" cy="122" r="108" fill="#EFA0BE" opacity="0.14"/>
  <g fill="none" stroke="#2E2A45" stroke-width="5" stroke-linecap="round" stroke-linejoin="round" transform="translate(120 122) scale(1.12) translate(-120 -122)"><path d="M96 78 L104 44 L124 70 Z" fill="#FFFCF5"/>
<path d="M148 78 L140 44 L120 70 Z" fill="#FFFCF5"/>
<path d="M120 18 L134 76 h-28 Z" fill="#F5C765"/>
<circle cx="120" cy="126" r="54" fill="#FFFCF5"/>
<path d="M86 86 q34 -22 68 0 q-16 -28 -34 -28 q-18 0 -34 28 Z" fill="#EFA0BE"/>
<path d="M74 112 q-12 30 4 54 q12 -26 10 -48 Z" fill="#EFA0BE"/>
<circle cx="102" cy="120" r="7" fill="#2E2A45" stroke="none"/>
<circle cx="140" cy="120" r="7" fill="#2E2A45" stroke="none"/>
<path d="M108 154 q12 10 24 0" fill="none" stroke-width="5"/>
  </g>
</svg>
